<?xml version="1.0" encoding="UTF-8"?>
<svg version="1.1" xmlns="http://www.w3.org/2000/svg" width="512" height="512">
<path d="M0 0 C168.96 0 337.92 0 512 0 C512 168.96 512 337.92 512 512 C343.04 512 174.08 512 0 512 C0 343.04 0 174.08 0 0 Z " fill="#F8F1FE" transform="translate(0,0)"/>
<path d="M0 0 C0.33 0 0.66 0 1 0 C1.13535156 1.10214844 1.27070313 2.20429688 1.41015625 3.33984375 C3.56494732 19.13053174 8.56099328 33.02647345 18 46 C18.61617187 46.84949219 19.23234375 47.69898438 19.8671875 48.57421875 C35.28042528 68.78474941 56.72754706 79.48711786 81.40625 83.5625 C107.22340221 86.70545766 132.17013373 79.76063349 152.625 63.75 C163.78007362 54.18170784 171.41897875 43.25573707 179.38671875 31.01171875 C180.05974533 30.02797272 180.73277191 29.04422668 181.42619324 28.03067017 C183.45314798 24.98112895 185.13843098 21.83661656 186.81619263 18.58323669 C194.88225856 3.87038678 194.88225856 3.87038678 201.74431038 0.75346184 C209.41733097 -1.12734317 217.21377596 -0.63047213 225.04296875 -0.2890625 C227.54533979 -0.25812144 230.04784038 -0.23641667 232.55036926 -0.22348022 C239.09818498 -0.16254231 245.63528751 0.03371842 252.17932129 0.25622559 C257.53476098 0.42643591 262.89093718 0.47619579 268.24854565 0.53160667 C274.63899014 0.60029648 281.0283858 0.71177187 287.41796875 0.8359375 C288.63581747 0.85861065 289.85366619 0.8812838 291.10841942 0.90464401 C294.54370336 0.9790641 297.9767293 1.08240797 301.41088867 1.19677734 C302.42957535 1.21695923 303.44826202 1.23714111 304.49781799 1.25793457 C311.37445174 1.53231822 311.37445174 1.53231822 314.56303406 3.91621399 C315.2743322 4.94768806 315.2743322 4.94768806 316 6 C316.52158691 6.70745361 317.04317383 7.41490723 317.58056641 8.14379883 C318.08249512 8.90716553 318.58442383 9.67053223 319.1015625 10.45703125 C319.66915283 11.31498291 320.23674316 12.17293457 320.8215332 13.05688477 C321.71424927 14.42091431 321.71424927 14.42091431 322.625 15.8125 C323.24528076 16.75085693 323.86556152 17.68921387 324.50463867 18.65600586 C326.34087463 21.43443652 328.17146833 24.21649449 330 27 C347.12182657 53.0635383 364.79335903 73.62849738 396 82 C396.63494385 82.17515137 397.2698877 82.35030273 397.92407227 82.53076172 C413.40228717 86.43558425 431.00297697 85.20864348 446 80 C446.63583008 79.78037598 447.27166016 79.56075195 447.92675781 79.33447266 C470.28472888 71.44834856 490.40338515 56.68753243 501 35 C505.05773907 25.8244594 508.8052794 16.61717027 510.125 6.625 C510.29257812 5.37976563 510.46015625 4.13453125 510.6328125 2.8515625 C510.75398438 1.91054688 510.87515625 0.96953125 511 0 C511.33 0 511.66 0 512 0 C512 57.75 512 115.5 512 175 C343.04 175 174.08 175 0 175 C0 117.25 0 59.5 0 0 Z " fill="#FEFEFE" transform="translate(0,337)"/>
<path d="M0 0 C168.96 0 337.92 0 512 0 C512 104.61 512 209.22 512 317 C511.67 317 511.34 317 511 317 C510.77449463 315.96166016 510.77449463 315.96166016 510.54443359 314.90234375 C507.8552942 302.56035254 505.12220809 290.24054543 502 278 C499.84064819 269.53162227 497.86500783 261.03798277 496 252.5 C493.89412693 242.86166028 491.62429595 233.28252439 489.1796875 223.72460938 C487.70798503 217.94182036 486.36072681 212.14828721 485.10839844 206.31420898 C479.67279804 181.1712853 468.91846157 157.03395684 451.05859375 138.18359375 C449.21681138 136.22997639 447.55538759 134.21586395 445.875 132.125 C430.45986789 114.5432249 407.98580234 103.49581227 386 96.75 C385.24243408 96.51579346 384.48486816 96.28158691 383.7043457 96.0402832 C368.88168892 91.7073632 354.82780269 90.55322604 339.48657227 90.58007812 C337.47553542 90.57272031 335.46450278 90.56412918 333.45347595 90.55441284 C328.03552423 90.5323609 322.61772535 90.52925816 317.19973493 90.53116035 C312.65063913 90.53128089 308.10157474 90.52268261 303.55248779 90.51438284 C292.80132755 90.49520492 282.05024492 90.49224337 271.29907227 90.49902344 C260.27349859 90.50564986 249.24826067 90.48284304 238.22275501 90.44570971 C228.70193125 90.4148285 219.18121441 90.40367279 209.66034168 90.40754652 C203.99844441 90.40959622 198.33680822 90.40441501 192.67495918 90.37965393 C159.49199888 89.97792226 159.49199888 89.97792226 127 96 C126.1924634 96.23434753 125.3849268 96.46869507 124.55291939 96.71014404 C101.78046976 103.45942039 81.81179012 116.42301141 65 133 C64.15953125 133.82757813 63.3190625 134.65515625 62.453125 135.5078125 C44.17773001 154.53983212 32.62453246 178.96866425 27.1875 204.5625 C25.26680224 213.41503928 23.2432696 222.2236221 21 231 C18.8401841 239.46825177 16.86505744 247.9620465 15 256.5 C12.45109692 268.16285908 9.60800237 279.73342854 6.67724609 291.30517578 C5.65211966 295.38424773 4.66019333 299.47063665 3.6875 303.5625 C3.38199219 304.84253906 3.07648437 306.12257813 2.76171875 307.44140625 C2.00783477 310.96339757 1.46395619 314.43075288 1 318 C0.67 318 0.34 318 0 318 C0 213.06 0 108.12 0 0 Z " fill="#FEFEFE" transform="translate(0,0)"/>
<path d="M0 0 C2.01855719 -0.00599397 4.03711211 -0.0128015 6.05566406 -0.02035522 C11.51068022 -0.03793765 16.96563352 -0.04270742 22.42067528 -0.0439868 C25.83877073 -0.04541379 29.25685048 -0.0496938 32.67494202 -0.05498123 C44.62835697 -0.07345848 56.58172749 -0.08165506 68.53515625 -0.08007812 C79.62999337 -0.07887856 90.72463539 -0.09995056 101.8194232 -0.13156545 C111.38254051 -0.15783241 120.94559453 -0.16844102 130.50874758 -0.16716731 C136.2034877 -0.16666057 141.89805439 -0.17218234 147.59275818 -0.19352341 C152.95767804 -0.21308127 158.32226218 -0.21291193 163.68719482 -0.19849014 C165.63967894 -0.19642225 167.59218506 -0.20097992 169.54463196 -0.21321106 C186.42382794 -0.31197544 202.61427017 1.95308617 218.61132812 7.54052734 C219.47419434 7.83572266 220.33706055 8.13091797 221.22607422 8.43505859 C256.73494264 20.97763321 285.73293812 47.37700544 302.13061523 81.20166016 C309.27186049 96.55280643 313.51784359 112.16504927 317.08007812 128.68212891 C318.32632874 134.43824894 319.61893945 140.18387333 320.91384888 145.92919922 C321.21250557 147.25491474 321.51057967 148.58076165 321.80807495 149.90673828 C323.94906136 159.44608571 326.24097921 168.93771772 328.65551758 178.41137695 C331.39861959 189.2561348 333.7836053 200.17968195 336.14916992 211.11206055 C336.63740447 213.29112314 337.15337125 215.46410327 337.69262695 217.63110352 C339.33462381 224.27732754 340.328708 230.38261582 340.17382812 237.22802734 C340.16109863 238.08428711 340.14836914 238.94054687 340.13525391 239.82275391 C339.5234932 266.7907838 328.39681105 290.59266541 308.86132812 309.29052734 C287.34997558 327.50604976 260.5615723 334.36566293 232.86132812 332.29052734 C208.07742421 328.94694699 186.52050985 314.24438117 170.86132812 295.29052734 C168.55288417 292.13654295 166.4170951 288.88693989 164.29882812 285.60302734 C163.09836135 283.76880572 161.8964867 281.93550492 160.69335938 280.10302734 C160.07412598 279.15814453 159.45489258 278.21326172 158.81689453 277.23974609 C154.79507023 271.17437311 150.63858192 265.1984832 146.48413086 259.22338867 C145.87899658 258.34448975 145.2738623 257.46559082 144.65039062 256.56005859 C144.1110791 255.78251221 143.57176758 255.00496582 143.01611328 254.20385742 C141.86132812 252.29052734 141.86132812 252.29052734 141.86132812 250.29052734 C127.11080553 249.79803296 112.36138116 249.42874588 97.60428429 249.20247173 C90.7503075 249.09456426 83.90146093 248.94777115 77.05078125 248.70629883 C70.4308288 248.47307222 63.81477366 248.35234806 57.19054031 248.29810524 C54.67253677 248.25949325 52.15480364 248.18407138 49.63908005 248.07019615 C36.26680989 247.12462409 36.26680989 247.12462409 24.47174835 252.29886246 C20.17879032 257.24783351 17.13061754 262.73247892 14.25072098 268.58806801 C12.04358459 272.88109163 9.33409577 276.8124862 6.61132812 280.79052734 C5.63140623 282.25616852 4.65213559 283.72224556 3.67382812 285.18896484 C-11.73843482 307.8733601 -32.00898487 325.62026534 -59.65039062 330.97021484 C-85.52790181 334.91809011 -111.08730735 330.77899054 -132.76367188 315.47802734 C-152.93163955 300.14227 -167.10967885 280.07959562 -171.38867188 254.72802734 C-172.08122258 249.08155535 -172.37123378 243.47355458 -172.45117188 237.79052734 C-172.47775879 236.68922485 -172.47775879 236.68922485 -172.50488281 235.56567383 C-172.4953391 228.25598683 -170.78771669 221.37959971 -169.13867188 214.29052734 C-168.59931449 211.85598476 -168.06156614 209.42108517 -167.52539062 206.98583984 C-166.96056258 204.46204862 -166.39410837 201.93862088 -165.82617188 199.41552734 C-165.60031906 198.41156921 -165.60031906 198.41156921 -165.36990356 197.3873291 C-163.16482532 187.60452673 -160.81679222 177.8658794 -158.33862305 168.1484375 C-156.46018958 160.72578677 -154.7732419 153.27035799 -153.13867188 145.79052734 C-150.59519319 134.15615815 -147.80495358 122.59839043 -144.83935547 111.06469727 C-144.34771194 109.11816576 -143.87291387 107.16733882 -143.41064453 105.21362305 C-142.00744594 99.33721136 -140.41634908 93.84182169 -137.88867188 88.35302734 C-137.58421143 87.67900879 -137.27975098 87.00499023 -136.96606445 86.31054688 C-128.91468191 68.7322131 -118.71541678 53.98544947 -105.13867188 40.29052734 C-104.28917969 39.42814453 -103.4396875 38.56576172 -102.56445312 37.67724609 C-83.29416656 19.17422974 -58.16599085 7.43941001 -32.13867188 2.29052734 C-31.39024773 2.12661184 -30.64182358 1.96269634 -29.87071991 1.79381371 C-19.93949293 -0.15548914 -10.07541601 -0.00599857 0 0 Z M-29.13867188 30.29052734 C-29.85227654 30.445939 -30.56588121 30.60135065 -31.30111027 30.76147175 C-38.90447115 32.52818603 -46.18233604 34.72260025 -53.13867188 38.29052734 C-54.26789063 38.84482422 -55.39710937 39.39912109 -56.56054688 39.97021484 C-74.67183525 49.05755907 -91.55709816 62.80336085 -102.13867188 80.29052734 C-102.79222656 81.33466797 -103.44578125 82.37880859 -104.11914062 83.45458984 C-117.88630727 105.99828475 -121.69334244 132.70161973 -127.3684082 158.11865234 C-129.52756323 167.7544547 -131.82600255 177.35290318 -134.17440796 186.94421387 C-134.75938819 189.33551633 -135.34167971 191.72745755 -135.9230957 194.11962891 C-137.53052734 200.72901034 -139.14570712 207.33497289 -140.82226562 213.92724609 C-146.08979577 235.041751 -145.50509239 253.59950997 -135.12304688 273.09912109 C-132.01636399 278.09549889 -128.34188227 282.19792774 -124.13867188 286.29052734 C-123.54828125 286.91314453 -122.95789063 287.53576172 -122.34960938 288.17724609 C-110.30232444 299.9857082 -93.15910393 304.80740321 -76.76269531 304.71289062 C-59.84087747 304.22823354 -44.06003159 297.80299556 -31.76196289 286.04418945 C-21.81935911 275.30306704 -14.28176441 262.06080111 -6.35620117 249.82202148 C-4.6784411 247.23538497 -2.98590542 244.65893036 -1.29101562 242.08349609 C-0.79182114 241.30419235 -0.29262665 240.52488861 0.22169495 239.7219696 C6.37006275 230.4340473 13.02756023 225.18756967 23.86132812 222.29052734 C27.89791738 221.77102626 31.86911743 221.73213345 35.93530273 221.75708008 C37.08806198 221.74846451 38.24082123 221.73984894 39.42851257 221.73097229 C43.20713295 221.70842622 46.98500482 221.7150308 50.76367188 221.72412109 C52.73985307 221.72020711 54.71603463 221.71628024 56.69221216 221.71082169 C62.89539682 221.69389112 69.09833509 221.6973188 75.30151367 221.71411133 C81.66888734 221.73102709 88.03557512 221.71519088 94.40287393 221.68288845 C99.90052875 221.65607014 105.39797167 221.64894924 110.89568526 221.65740353 C114.16572651 221.66229729 117.4352691 221.65816585 120.70527458 221.63961601 C124.35666876 221.62207569 128.00662111 221.63679397 131.65795898 221.65942383 C132.7196228 221.64773163 133.78128662 221.63603943 134.87512207 221.62399292 C144.6662898 221.74662713 154.12902705 224.7406327 161.35140991 231.59591675 C164.22037269 234.8158095 166.55617808 238.32683945 168.88085938 241.95068359 C169.42433517 242.7770079 169.96781097 243.60333221 170.52775574 244.45469666 C172.25322233 247.08101982 173.96442062 249.71622937 175.67382812 252.35302734 C197.23532282 286.27515103 197.23532282 286.27515103 232.39648438 303.85693359 C243.89530249 305.29590632 255.94292951 305.52140681 266.86132812 301.29052734 C267.83070313 300.95021484 268.80007813 300.60990234 269.79882812 300.25927734 C286.23562844 294.05354661 299.06838439 282.01048317 306.33789062 266.04833984 C308.93984671 259.58148992 311.107287 253.23358138 311.86132812 246.29052734 C312.05662109 244.68757813 312.05662109 244.68757813 312.25585938 243.05224609 C313.09426479 229.14040027 308.90907287 215.91091577 305.45635986 202.57150269 C303.71833663 195.82549376 302.20614585 189.03725403 300.73632812 182.22802734 C298.69499212 172.87156033 296.47707766 163.5768233 294.11523438 154.29638672 C292.21426541 146.79701441 290.45631009 139.27078017 288.73632812 131.72802734 C287.99381796 128.51243953 287.24918975 125.29735232 286.50341797 122.08251953 C286.11404797 120.38942628 285.73003384 118.69507289 285.35595703 116.99853516 C280.69691191 95.87138004 269.71870358 77.81715394 254.86132812 62.29052734 C254.23871094 61.60474609 253.61609375 60.91896484 252.97460938 60.21240234 C234.50105755 40.5382633 206.33162415 29.68988048 179.86132812 28.29052734 C173.40669273 28.11171982 166.94847721 28.14323987 160.49194336 28.14526367 C158.56863338 28.14226578 156.64532399 28.13886181 154.72201538 28.13508606 C149.53412515 28.12630945 144.34625146 28.12391073 139.15835452 28.12327027 C135.91067826 28.12255656 132.66300612 28.12041627 129.41533089 28.11777306 C118.06765605 28.1085431 106.71999292 28.10443553 95.37231445 28.10522461 C84.82096907 28.1058259 74.26967472 28.09525795 63.71834224 28.07948095 C54.63261502 28.06638294 45.54690445 28.06104161 36.46116787 28.06168002 C31.04620599 28.06193419 25.63128961 28.05912741 20.2163372 28.04850197 C15.12482656 28.03878195 10.03340459 28.03876846 4.94189072 28.0460186 C3.08119005 28.04705935 1.22048375 28.04473208 -0.64020729 28.03865814 C-10.33794216 28.00906809 -19.61600193 28.18669912 -29.13867188 30.29052734 Z " fill="#2299A4" transform="translate(172.138671875,89.70947265625)"/>
<path d="M0 0 C5.70364979 2.08214361 10.00616952 4.96286751 14.55859375 8.9609375 C16.70739669 10.7311467 16.70739669 10.7311467 20.56640625 10.3515625 C22.68923007 8.96457196 22.68923007 8.96457196 24.75390625 7.1015625 C30.15574828 2.72864276 35.22436863 -0.24508813 42.19140625 -1.0859375 C47.78272902 -0.3611364 51.38790261 0.86292632 54.94140625 5.3515625 C59.69703335 14.13118176 58.138491 25.02775528 55.56640625 34.3515625 C56.16066406 34.48691406 56.75492187 34.62226563 57.3671875 34.76171875 C65.85138236 36.96523437 73.15887071 40.78553694 79.25390625 47.1640625 C81.10703399 51.66451558 81.31867731 55.55583451 80.56640625 60.3515625 C76.77946062 68.55661136 68.84532715 72.56723826 60.765625 75.6875 C58.56640625 76.3515625 58.56640625 76.3515625 55.56640625 76.3515625 C55.88867188 77.18042969 56.2109375 78.00929688 56.54296875 78.86328125 C57.66566075 82.68986125 57.95081672 86.21025245 57.94140625 90.1640625 C57.93979492 90.86748779 57.93818359 91.57091309 57.93652344 92.2956543 C57.7765773 99.09885339 56.45313105 104.55231421 51.50390625 109.3515625 C46.9612419 111.69616346 42.55764973 112.22609661 37.56640625 111.3515625 C30.54903026 108.40691891 24.77200438 104.9331205 19.56640625 99.3515625 C16.67519071 100.69482636 14.30524932 102.24165873 11.81640625 104.2265625 C5.38604391 109.06713046 0.16316793 112.13238516 -8.10546875 111.7265625 C-12.4525431 111.02636261 -14.95777926 109.18710678 -17.68359375 105.796875 C-22.92867964 97.31003463 -20.73255995 85.76906743 -19.43359375 76.3515625 C-20.54734375 76.1453125 -21.66109375 75.9390625 -22.80859375 75.7265625 C-30.93931276 73.67583053 -37.62748815 69.17313174 -42.43359375 62.3515625 C-44.29561465 58.62752069 -43.85447763 54.41591873 -43.43359375 50.3515625 C-40.32648807 43.14872661 -32.46638819 38.5581102 -25.49609375 35.4140625 C-22.43359375 34.3515625 -22.43359375 34.3515625 -19.43359375 34.3515625 C-19.68109375 32.8046875 -19.68109375 32.8046875 -19.93359375 31.2265625 C-22.14451078 12.986497 -22.14451078 12.986497 -17.43359375 5.3515625 C-12.14600158 -0.58085799 -7.73685769 -2.06150622 0 0 Z " fill="#509FBA" transform="translate(130.43359375,167.6484375)"/>
<path d="M0 0 C1.15275925 -0.00861557 2.30551849 -0.01723114 3.49320984 -0.02610779 C7.27183022 -0.04865386 11.04970209 -0.04204928 14.82836914 -0.03295898 C16.80455033 -0.03687297 18.7807319 -0.04079983 20.75690943 -0.04625839 C26.96009409 -0.06318895 33.16303235 -0.05976127 39.36621094 -0.04296875 C45.73358461 -0.02605298 52.10027238 -0.0418892 58.4675712 -0.07419163 C63.96522602 -0.10100994 69.46266894 -0.10813084 74.96038252 -0.09967655 C78.23042377 -0.09478279 81.49996637 -0.09891423 84.76997185 -0.11746407 C88.42136603 -0.13500439 92.07131837 -0.12028611 95.72265625 -0.09765625 C96.78432007 -0.10934845 97.84598389 -0.12104065 98.93981934 -0.13308716 C109.325364 -0.00300839 118.61694423 3.36817307 126.18682861 10.60955811 C129.19100749 13.93276297 131.63467133 17.52268461 134.04321289 21.29125977 C134.85630417 22.52862381 134.85630417 22.52862381 135.68582153 23.79098511 C137.40216179 26.4063093 139.10252444 29.03150995 140.80102539 31.65844727 C161.95361658 64.94937832 161.95361658 64.94937832 196.46118164 82.09985352 C207.95999976 83.53882625 220.00762678 83.76432673 230.92602539 79.53344727 C231.89540039 79.19313477 232.86477539 78.85282227 233.86352539 78.50219727 C241.48203626 75.62582071 247.52619253 71.5062162 253.92602539 66.53344727 C255.41102539 65.54344727 255.41102539 65.54344727 256.92602539 64.53344727 C256.27556359 70.61385102 250.133868 74.37539448 245.73657227 78.07543945 C228.25571638 92.15252567 204.95063611 104.5085977 181.92602539 102.53344727 C166.82361207 99.12719643 154.26553919 87.16079122 144.64624023 75.56420898 C143.56955531 74.29315233 142.46476417 73.04481774 141.32128906 71.83349609 C136.0960657 66.24505879 132.59781383 60.05588995 128.98852539 53.34594727 C127.76375847 51.11709506 126.53721147 48.88922004 125.30883789 46.66235352 C124.43533691 45.07318115 124.43533691 45.07318115 123.54418945 43.4519043 C117.03791672 30.12706355 117.03791672 30.12706355 105.92602539 21.53344727 C104.13367236 21.3486536 102.33629491 21.21099662 100.5378418 21.1003418 C98.8767186 20.99485519 98.8767186 20.99485519 97.18203735 20.88723755 C95.97606903 20.81431488 94.77010071 20.74139221 93.52758789 20.66625977 C90.93513513 20.50097117 88.34268739 20.33560374 85.75024414 20.17016602 C81.69491044 19.91531869 77.63937091 19.66389479 73.58374023 19.41381836 C59.01457894 18.50992535 44.47304759 17.49245682 29.94946289 16.02563477 C28.15878891 15.84860519 28.15878891 15.84860519 26.3319397 15.66799927 C20.34689167 15.03699401 14.73355617 14.09439453 8.92602539 12.53344727 C2.98261656 12.53344727 -0.82362649 15.69736309 -5.07397461 19.53344727 C-6.86487276 21.50461088 -8.57158531 23.53059323 -10.28100586 25.57250977 C-13.49658559 29.08933117 -17.50459465 32.62271655 -22.04663086 34.23266602 C-25.28485179 36.31036846 -26.59782755 39.64480786 -28.32397461 42.97094727 C-34.33664945 54.02203812 -39.97171098 63.07998583 -51.07397461 69.53344727 C-51.6735498 69.88648926 -52.273125 70.23953125 -52.89086914 70.60327148 C-69.03899057 79.99730392 -86.76505985 86.9474277 -105.63647461 86.78344727 C-106.97742188 86.79504883 -106.97742188 86.79504883 -108.34545898 86.80688477 C-113.92355916 86.7905626 -118.72079017 86.10754584 -124.07397461 84.53344727 C-124.07397461 84.20344727 -124.07397461 83.87344727 -124.07397461 83.53344727 C-122.87643555 83.50766602 -121.67889648 83.48188477 -120.44506836 83.45532227 C-99.98466724 82.82378929 -82.24134366 78.07855833 -67.07397461 63.53344727 C-61.41478056 56.82569988 -56.62798417 49.44082657 -51.82397461 42.11157227 C-51.2757756 41.27534332 -50.7275766 40.43911438 -50.1627655 39.57754517 C-47.88964585 36.10351694 -45.61935455 32.62788136 -43.36694336 29.14038086 C-31.81923251 11.29120366 -22.69917146 -0.13926268 0 0 Z " fill="#2A9AA9" transform="translate(208.073974609375,310.466552734375)"/>
<path d="M0 0 C7.62019837 6.14341574 14.11860807 15.66159643 15.703125 25.4375 C16.83049089 39.57184984 15.1153371 52.19746993 5.703125 63.4375 C-2.2914662 71.91613872 -11.78387237 78.15132416 -23.58984375 78.67578125 C-40.62841015 79.06313983 -40.62841015 79.06313983 -48.296875 74.4375 C-49.14507812 73.92832031 -49.99328125 73.41914063 -50.8671875 72.89453125 C-61.45883727 65.98624625 -69.58782657 56.06434498 -72.296875 43.4375 C-73.35855655 28.40712256 -71.60910209 16.40517189 -61.40234375 4.58984375 C-44.12006623 -13.07719691 -20.01136615 -13.61317425 0 0 Z " fill="#749ECB" transform="translate(397.296875,188.5625)"/>
<path d="M0 0 C0.83273437 0.56203125 1.66546875 1.1240625 2.5234375 1.703125 C9.65469517 7.25799939 13.63232449 15.19297019 17.88427734 22.9987793 C19.01776747 25.1038706 19.01776747 25.1038706 20.6262207 27.37426758 C22.27039023 30.51680237 22.29923622 32.41344862 22.14453125 35.9375 C22.07588867 37.65259766 22.07588867 37.65259766 22.00585938 39.40234375 C21.94205078 40.58957031 21.87824219 41.77679688 21.8125 43 C21.76802734 44.15628906 21.72355469 45.31257813 21.67773438 46.50390625 C21.17952468 57.51372536 20.29786417 68.46191123 15.9375 78.6875 C15.63440918 79.40663574 15.33131836 80.12577148 15.01904297 80.86669922 C9.09409051 94.13584388 -2.79469212 103.47068389 -16 109 C-30.84611895 114.11935136 -46.25903283 112.33160315 -60.57421875 106.55859375 C-74.23003708 99.85189007 -84.5006658 88.29190154 -89.72314453 74.02441406 C-92.62978212 65.08590831 -93.58624227 56.39208976 -93 47 C-92.979375 46.10152344 -92.95875 45.20304687 -92.9375 44.27734375 C-92.17213672 28.0372917 -84.80896784 14.31892921 -73.3125 3.125 C-51.82684265 -14.96818514 -22.75618594 -15.47194776 0 0 Z M-70 20 C-79.03639454 31.95194468 -81.71103268 43.21812266 -80 58 C-77.3058844 69.4589717 -70.66721438 79.25716454 -61 86 C-52.54131387 91.12574722 -46.58964483 93.18941351 -36.8125 93.25 C-35.99974609 93.270625 -35.18699219 93.29125 -34.34960938 93.3125 C-22.64890308 93.3869675 -13.12016498 88.47593709 -4.4765625 80.7421875 C4.89074381 71.063675 8.33774743 59.96004222 8.3828125 46.77709961 C8.14149774 34.89360428 3.22497175 25.4398031 -5 17 C-12.00322234 10.48470709 -21.36468817 5.51617742 -31 5 C-31.81984375 4.94972656 -32.6396875 4.89945313 -33.484375 4.84765625 C-47.57146698 4.35023069 -60.40715069 9.60611847 -70 20 Z " fill="#CEDFEC" transform="translate(405,174)"/>
<path d="M0 0 C2.01855719 -0.00599397 4.03711211 -0.0128015 6.05566406 -0.02035522 C11.51068022 -0.03793765 16.96563352 -0.04270742 22.42067528 -0.0439868 C25.83877073 -0.04541379 29.25685048 -0.0496938 32.67494202 -0.05498123 C44.62835697 -0.07345848 56.58172749 -0.08165506 68.53515625 -0.08007812 C79.62999337 -0.07887856 90.72463539 -0.09995056 101.8194232 -0.13156545 C111.38254051 -0.15783241 120.94559453 -0.16844102 130.50874758 -0.16716731 C136.2034877 -0.16666057 141.89805439 -0.17218234 147.59275818 -0.19352341 C152.95767804 -0.21308127 158.32226218 -0.21291193 163.68719482 -0.19849014 C165.63967894 -0.19642225 167.59218506 -0.20097992 169.54463196 -0.21321106 C186.42382794 -0.31197544 202.61427017 1.95308617 218.61132812 7.54052734 C219.47419434 7.83572266 220.33706055 8.13091797 221.22607422 8.43505859 C245.43639428 16.98671792 269.24402177 32.69275883 284.86132812 53.29052734 C285.60742188 55.58349609 285.60742188 55.58349609 285.86132812 57.29052734 C280.9488028 56.86945374 279.127395 54.84636556 275.86132812 51.29052734 C274.37407529 49.29088175 272.91596638 47.26926175 271.48632812 45.22802734 C266.73333319 38.83530105 266.73333319 38.83530105 259.86132812 35.29052734 C255.0976186 34.79110618 250.46641908 35.09687831 245.72070312 35.66943359 C233.33648385 37.09032832 224.14948519 32.94168783 213.11132812 27.85302734 C168.22714276 7.28163159 107.05309427 6.86212458 58.76843262 12.00686646 C47.14350639 13.20257412 35.5565265 13.40965836 23.88085938 13.38427734 C22.73834622 13.38198875 22.73834622 13.38198875 21.572752 13.37965393 C13.79696323 13.35959494 6.02200438 13.3055843 -1.75317955 13.20677185 C-25.67562088 12.91348618 -48.07505575 14.44011829 -71.13867188 21.29052734 C-72.82089844 21.77972656 -72.82089844 21.77972656 -74.53710938 22.27880859 C-76.74322052 22.9307546 -78.94232156 23.60641823 -81.13867188 24.29052734 C-78.73662947 18.32278643 -73.71252006 16.712816 -68.20117188 14.22802734 C-66.77417969 13.56951782 -66.77417969 13.56951782 -65.31835938 12.89770508 C-54.53950699 7.99446689 -43.75879914 4.58929165 -32.13867188 2.29052734 C-31.39024773 2.12661184 -30.64182358 1.96269634 -29.87071991 1.79381371 C-19.93949293 -0.15548914 -10.07541601 -0.00599857 0 0 Z " fill="#17999F" transform="translate(172.138671875,89.70947265625)"/>
<path d="M0 0 C5.70364979 2.08214361 10.00616952 4.96286751 14.55859375 8.9609375 C16.70739669 10.7311467 16.70739669 10.7311467 20.56640625 10.3515625 C22.68923007 8.96457196 22.68923007 8.96457196 24.75390625 7.1015625 C30.15574828 2.72864276 35.22436863 -0.24508813 42.19140625 -1.0859375 C47.78272902 -0.3611364 51.38790261 0.86292632 54.94140625 5.3515625 C59.69703335 14.13118176 58.138491 25.02775528 55.56640625 34.3515625 C56.16066406 34.48691406 56.75492187 34.62226563 57.3671875 34.76171875 C65.85138236 36.96523437 73.15887071 40.78553694 79.25390625 47.1640625 C81.10703399 51.66451558 81.31867731 55.55583451 80.56640625 60.3515625 C76.77946062 68.55661136 68.84532715 72.56723826 60.765625 75.6875 C58.56640625 76.3515625 58.56640625 76.3515625 55.56640625 76.3515625 C55.88867188 77.18042969 56.2109375 78.00929688 56.54296875 78.86328125 C57.66566075 82.68986125 57.95081672 86.21025245 57.94140625 90.1640625 C57.93979492 90.86748779 57.93818359 91.57091309 57.93652344 92.2956543 C57.7765773 99.09885339 56.45313105 104.55231421 51.50390625 109.3515625 C46.9612419 111.69616346 42.55764973 112.22609661 37.56640625 111.3515625 C30.54903026 108.40691891 24.77200438 104.9331205 19.56640625 99.3515625 C16.67519071 100.69482636 14.30524932 102.24165873 11.81640625 104.2265625 C5.38604391 109.06713046 0.16316793 112.13238516 -8.10546875 111.7265625 C-12.4525431 111.02636261 -14.95777926 109.18710678 -17.68359375 105.796875 C-22.92867964 97.31003463 -20.73255995 85.76906743 -19.43359375 76.3515625 C-20.54734375 76.1453125 -21.66109375 75.9390625 -22.80859375 75.7265625 C-30.93931276 73.67583053 -37.62748815 69.17313174 -42.43359375 62.3515625 C-44.29561465 58.62752069 -43.85447763 54.41591873 -43.43359375 50.3515625 C-40.32648807 43.14872661 -32.46638819 38.5581102 -25.49609375 35.4140625 C-22.43359375 34.3515625 -22.43359375 34.3515625 -19.43359375 34.3515625 C-19.68109375 32.8046875 -19.68109375 32.8046875 -19.93359375 31.2265625 C-22.14451078 12.986497 -22.14451078 12.986497 -17.43359375 5.3515625 C-12.14600158 -0.58085799 -7.73685769 -2.06150622 0 0 Z M-10.13745117 9.62255859 C-12.38443733 12.61995094 -11.74901058 16.36735367 -11.74609375 19.9765625 C-11.90115448 26.71568904 -12.46840012 31.26406885 -17.05859375 36.52734375 C-18.73710968 38.75423846 -19.05720297 40.61802449 -19.43359375 43.3515625 C-20.67109375 43.691875 -20.67109375 43.691875 -21.93359375 44.0390625 C-27.35814303 46.07326848 -32.17979043 48.47085752 -35.43359375 53.3515625 C-35.34324968 57.14099412 -35.02659183 58.78513243 -32.25390625 61.43359375 C-31.36445312 62.00464844 -30.475 62.57570312 -29.55859375 63.1640625 C-28.67429687 63.74800781 -27.79 64.33195312 -26.87890625 64.93359375 C-24.42459627 66.46696779 -24.42459627 66.46696779 -21.43359375 67.3515625 C-19.93359375 69.96875 -19.93359375 69.96875 -18.43359375 73.2265625 C-16.66588579 77.39607468 -16.66588579 77.39607468 -13.77734375 80.73828125 C-11.50683329 83.46421386 -11.97622464 86.88772671 -11.93359375 90.2890625 C-11.92046689 95.74370659 -11.92046689 95.74370659 -10.09375 100.81640625 C-8.42036596 102.62988352 -8.42036596 102.62988352 -5.37109375 102.9765625 C-1.36230831 102.34024735 -0.32892919 101.69209777 2.81640625 99.4140625 C10.01736548 94.77934373 19.19360206 94.25292107 27.56640625 95.3515625 C31.23615485 96.81401182 33.74719633 98.62804378 36.56640625 101.3515625 C39.64966975 102.89319425 42.17518724 102.64903785 45.56640625 102.3515625 C47.66776939 100.56564648 48.46363066 99.08717677 48.84545898 96.35424805 C48.98023286 93.91357336 49.04018448 91.48330612 49.06640625 89.0390625 C49.13631316 82.61261979 49.8445395 78.17896338 52.56640625 72.3515625 C52.56640625 71.0315625 52.56640625 69.7115625 52.56640625 68.3515625 C53.43910156 68.24457031 54.31179687 68.13757813 55.2109375 68.02734375 C58.69016872 67.32663711 61.1560256 66.24570526 64.25390625 64.5390625 C65.18589844 64.03761719 66.11789063 63.53617188 67.078125 63.01953125 C69.60240038 61.32743456 71.01489684 59.94765251 72.56640625 57.3515625 C73.04363111 54.36429063 73.04363111 54.36429063 71.56640625 51.3515625 C66.94662035 47.22237333 61.56127346 44.68324194 55.70703125 42.796875 C52.13411591 40.38450515 50.16796307 37.32972673 48.56640625 33.3515625 C48.07035538 29.54757691 48.22267318 25.86180435 48.44140625 22.0390625 C48.53571974 20.08524383 48.61705319 18.13074283 48.68359375 16.17578125 C48.75489502 14.89320435 48.75489502 14.89320435 48.82763672 13.5847168 C48.74838748 11.28702051 48.74838748 11.28702051 47.24658203 9.58911133 C45.13491055 8.0337404 43.35389576 7.70121413 40.74609375 7.78515625 C35.72511146 9.08989179 30.2380441 12.67992465 26.56640625 16.3515625 C18.5826354 17.19701597 11.47349273 17.78401887 4.69140625 12.9140625 C3.2995728 11.74633783 1.92028858 10.56308381 0.56640625 9.3515625 C-2.8185492 7.65908477 -7.01861612 7.29605691 -10.13745117 9.62255859 Z " fill="#329CAC" transform="translate(130.43359375,167.6484375)"/>
<path d="M0 0 C7.62019837 6.14341574 14.11860807 15.66159643 15.703125 25.4375 C16.83049089 39.57184984 15.1153371 52.19746993 5.703125 63.4375 C-2.2914662 71.91613872 -11.78387237 78.15132416 -23.58984375 78.67578125 C-40.62841015 79.06313983 -40.62841015 79.06313983 -48.296875 74.4375 C-49.14507812 73.92832031 -49.99328125 73.41914063 -50.8671875 72.89453125 C-61.45883727 65.98624625 -69.58782657 56.06434498 -72.296875 43.4375 C-73.35855655 28.40712256 -71.60910209 16.40517189 -61.40234375 4.58984375 C-44.12006623 -13.07719691 -20.01136615 -13.61317425 0 0 Z M-57.5078125 11.08203125 C-65.28829766 21.32577044 -67.44354795 31.91698446 -66.296875 44.4375 C-65.48347122 47.87241595 -64.21894783 50.49146575 -62.296875 53.4375 C-61.8225 54.19417969 -61.348125 54.95085937 -60.859375 55.73046875 C-55.0711168 64.03717583 -46.62328511 69.5289754 -36.81640625 72 C-26.79170173 73.74072389 -16.83373982 72.19917843 -7.94140625 67.08203125 C-5.93518276 65.63460115 -4.11808662 64.11061309 -2.296875 62.4375 C-1.65878906 61.87804687 -1.02070313 61.31859375 -0.36328125 60.7421875 C7.44616569 53.50099553 8.75149641 45.35355648 9.14819336 35.00024414 C9.34696346 25.04848781 8.89332299 17.99497726 1.703125 10.4375 C0.85814453 9.54224609 0.85814453 9.54224609 -0.00390625 8.62890625 C-7.41858338 1.66570829 -16.13054261 -1.93934066 -26.171875 -2.8125 C-38.58557002 -1.8194044 -48.79898505 1.81770247 -57.5078125 11.08203125 Z " fill="#359CAD" transform="translate(397.296875,188.5625)"/>
<path d="M0 0 C0.83273437 0.56203125 1.66546875 1.1240625 2.5234375 1.703125 C9.65469517 7.25799939 13.63232449 15.19297019 17.88427734 22.9987793 C19.01776747 25.1038706 19.01776747 25.1038706 20.6262207 27.37426758 C22.27039023 30.51680237 22.29923622 32.41344862 22.14453125 35.9375 C22.07588867 37.65259766 22.07588867 37.65259766 22.00585938 39.40234375 C21.94205078 40.58957031 21.87824219 41.77679688 21.8125 43 C21.76802734 44.15628906 21.72355469 45.31257813 21.67773438 46.50390625 C20.69102454 68.30897546 20.69102454 68.30897546 17 72 C17.0721875 71.32839844 17.144375 70.65679687 17.21875 69.96484375 C17.4878896 67.06785497 17.67500554 64.17308733 17.84033203 61.26855469 C17.95282201 59.67030259 18.10032043 58.07432417 18.27294922 56.48144531 C20.00727653 40.13429861 16.35814747 29.18511704 6.11108398 16.25463867 C2.54523258 12.44630772 -1.56057543 9.69731431 -6 7 C-6.62648438 6.61634277 -7.25296875 6.23268555 -7.8984375 5.83740234 C-21.188729 -1.91398287 -35.09450748 -3.73484472 -50.12890625 -0.28125 C-65.79815443 4.45834006 -77.39264101 13.4433652 -85.38574219 27.67456055 C-88.15896182 32.91104334 -89.86424299 38.20290694 -91 44 C-91.33 44 -91.66 44 -92 44 C-93.24193703 31.82901714 -87.51488944 20.43610161 -80.4375 10.9375 C-59.93961924 -13.76507425 -26.17506463 -17.79644592 0 0 Z " fill="#E3E7F5" transform="translate(405,174)"/>
<path d="M0 0 C4.29146046 0.37010386 6.94646866 0.78939402 10.46606445 3.36328125 C12.28270465 5.94275304 13.48940248 8.37253505 14.64575195 11.30078125 C15.66668945 12.90953125 15.66668945 12.90953125 16.70825195 14.55078125 C17.95434955 18.20600086 16.97781708 19.71678844 15.64575195 23.30078125 C15.17395508 24.89019531 15.17395508 24.89019531 14.69262695 26.51171875 C13.08972606 30.42241068 11.92079831 32.56796111 8.64575195 35.30078125 C1.47952381 36.86570614 -6.11464194 36.02316743 -13.35424805 35.30078125 C-14.92186284 32.77217654 -16.45734083 30.23169014 -17.97924805 27.67578125 C-18.42526367 26.96292969 -18.8712793 26.25007813 -19.33081055 25.515625 C-22.50491458 20.10972907 -22.50491458 20.10972907 -21.7722168 16.17578125 C-21.30428711 15.22703125 -20.83635742 14.27828125 -20.35424805 13.30078125 C-20.02811523 12.24117187 -19.70198242 11.1815625 -19.3659668 10.08984375 C-15.31748989 0.41649185 -9.67205615 -0.25150159 0 0 Z " fill="#F0E3FD" transform="translate(151.354248046875,204.69921875)"/>
<path d="M0 0 C0.33 0 0.66 0 1 0 C1.08636719 1.01578125 1.17273438 2.0315625 1.26171875 3.078125 C2.89908115 19.96046411 9.05880551 34.78295559 22.2578125 45.99609375 C35.49745726 55.67121877 51.13103123 59.64638216 67.328125 57.57421875 C82.10611156 54.87375708 96.18667263 48.01148089 104.96875 35.5390625 C105.3090625 35.03117187 105.649375 34.52328125 106 34 C106.33 34.66 106.66 35.32 107 36 C98.87636731 49.29321712 87.20718101 59.6936313 71.73046875 63.53125 C54.3078193 66.52226278 37.80258417 64.34443952 23 54 C9.745055 43.24236348 2.57699497 29.63483294 0 13 C-0.2619845 8.63795813 -0.26880171 4.36056108 0 0 Z " fill="#E3E7F5" transform="translate(312,221)"/>
<path d="M0 0 C9.17246918 -1.28414568 17.03801415 3.66280567 24.43359375 8.63671875 C31.99436961 14.72365916 38.43124779 24.32135916 40 34 C41.12643068 48.12262471 39.42252073 60.77673086 30 72 C24.65647753 77.56532906 17.34602882 84.75837158 9.234375 85.125 C8.49703125 85.08375 7.7596875 85.0425 7 85 C8 83 8 83 9.93359375 82.24609375 C10.75988281 81.97925781 11.58617187 81.71242188 12.4375 81.4375 C20.25691436 78.3972399 27.03271505 73.10747024 30.5 65.3125 C35.22206949 50.92355239 36.05888199 36.35450968 29.4140625 22.75390625 C23.54138807 12.27797827 15.8289439 6.59976563 4.1875 3 C2.79670795 2.64622142 1.40252842 2.30393392 0 2 C0 1.34 0 0.68 0 0 Z " fill="#339CAC" transform="translate(373,180)"/>
<path d="M0 0 C2.36113713 4.07066174 4 8.34411466 4 13.0625 C2.6015961 17.17031146 0.86970974 21.08665404 -1 25 C-7.56973492 24.17878314 -14.40158577 20.73776012 -19 16 C-20.0625 13.0625 -20.0625 13.0625 -20 10 C-17.16904404 5.59397786 -14.1674167 3.74512193 -9.4375 1.625 C-8.30183594 1.10164062 -7.16617188 0.57828125 -5.99609375 0.0390625 C-3 -1 -3 -1 0 0 Z " fill="#F1E9FC" transform="translate(115,211)"/>
<path d="M0 0 C1.22552908 3.67658724 1.22256946 7.10751116 1.25 10.9375 C1.270625 11.65357422 1.29125 12.36964844 1.3125 13.10742188 C1.3362638 16.31256378 1.20621646 18.61615756 -0.32421875 21.46484375 C-2 23 -2 23 -5.0625 23.625 C-12.7859003 22.39906345 -18.40331454 18.2028836 -23 12 C-21.67015594 10.16957972 -20.3099864 8.36116748 -18.9375 6.5625 C-18.18339844 5.55316406 -17.42929688 4.54382813 -16.65234375 3.50390625 C-11.95016936 -0.93511257 -6.1700567 -0.12591952 0 0 Z " fill="#F5F0FD" transform="translate(178,247)"/>
<path d="M0 0 C6.37334749 1.62772544 12.55680936 6.1079886 16.171875 11.5546875 C9.73061939 21.89818526 9.73061939 21.89818526 3.45703125 23.5078125 C-0.00959323 23.71897744 -3.36286868 23.76664486 -6.828125 23.5546875 C-8.10883958 19.71254376 -8.05138483 16.05902858 -8.078125 12.0546875 C-8.09875 11.28253906 -8.119375 10.51039063 -8.140625 9.71484375 C-8.18020767 4.00504379 -8.18020767 4.00504379 -6.49511719 1.84960938 C-4.39336346 0.21696413 -2.64338909 -0.10166881 0 0 Z " fill="#F3EBFD" transform="translate(126.828125,175.4453125)"/>
<path d="M0 0 C1.67089844 1.29101562 1.67089844 1.29101562 3 3 C3.24487457 5.91517345 3.32761877 8.59414715 3.25 11.5 C3.24484375 12.27214844 3.2396875 13.04429687 3.234375 13.83984375 C3.18877829 17.12850625 3.04575554 19.86273337 2 23 C-9.9793722 23.73273543 -9.9793722 23.73273543 -14.93359375 19.484375 C-17.13435699 16.73782248 -19.14020205 13.98650095 -21 11 C-16.02956698 4.292772 -8.80482509 -1.61721277 0 0 Z " fill="#F5F0FD" transform="translate(176,176)"/>
<path d="M0 0 C6.7087948 2.17156287 12.73755514 4.19515904 18 9 C19.25 12 19.25 12 19 15 C15.19460418 20.63762344 8.21649119 23.64446345 2 26 C-1 25 -1 25 -2.203125 22.92578125 C-4.71322069 16.65990805 -5.66542183 13.04650686 -3.02734375 6.63671875 C-2.05816307 4.40308729 -1.04957391 2.19678261 0 0 Z " fill="#F5F0FD" transform="translate(184,210)"/>
<path d="M0 0 C12.04773677 -0.57531327 12.04773677 -0.57531327 16.7109375 3.1875 C22 9.75586643 22 9.75586643 22 14 C20.171875 15.75390625 20.171875 15.75390625 17.75 17.5625 C16.56664062 18.46162109 16.56664062 18.46162109 15.359375 19.37890625 C10.75792331 22.54049971 7.70642449 23.62251904 2 23 C-0.79311739 20.50224674 -1.00103617 18.98804701 -1.328125 15.21484375 C-1.3175524 13.78886389 -1.29105643 12.3629279 -1.25 10.9375 C-1.24484375 10.21755859 -1.2396875 9.49761719 -1.234375 8.75585938 C-1.18737128 5.59192167 -1.00629041 3.01887124 0 0 Z " fill="#F6F0FD" transform="translate(120,247)"/>
<path d="M0 0 C3.4431146 2.09580889 5.7468218 4.1265401 7 8 C7.51555338 11.9525759 7.15914688 13.7044415 5.25 17.25 C2.2772789 20.88332579 0.72224085 21.77535989 -3.875 22.375 C-7.87153796 21.89541545 -9.90459308 20.53260567 -13 18 C-15.59107284 14.58449489 -15.50288306 11.16674536 -15 7 C-11.2816636 0.80738027 -7.10145172 -0.99502107 0 0 Z " fill="#4E9EB9" transform="translate(153,212)"/>
<path d="M0 0 C1.16789062 0.67482422 1.16789062 0.67482422 2.359375 1.36328125 C3.26171875 1.86472656 4.1640625 2.36617187 5.09375 2.8828125 C13.14673827 7.9882291 19.177935 15.32279927 22.359375 24.36328125 C23.22199672 29.04083078 22.94626438 33.66092067 22.359375 38.36328125 C22.029375 38.36328125 21.699375 38.36328125 21.359375 38.36328125 C21.36839844 37.55246094 21.37742187 36.74164063 21.38671875 35.90625 C21.11959777 25.92986223 18.38971626 19.27472353 11.2109375 12.265625 C1.91434225 4.58370156 -7.43077269 1.76457716 -19.46484375 2.546875 C-28.87105361 3.84844755 -37.57989199 8.25102361 -44.07421875 15.23046875 C-49.19795928 22.20693341 -52.55575889 29.9500601 -53.203125 38.55078125 C-53.28691406 39.63746094 -53.37070312 40.72414062 -53.45703125 41.84375 C-53.51761719 42.67519531 -53.57820313 43.50664062 -53.640625 44.36328125 C-53.970625 44.36328125 -54.300625 44.36328125 -54.640625 44.36328125 C-55.2045658 30.86003213 -54.53330063 21.19053233 -45.54296875 10.39453125 C-34.15696114 -1.76301281 -15.60376039 -7.61861455 0 0 Z " fill="#5E9CC1" transform="translate(384.640625,184.63671875)"/>
<path d="M0 0 C0.33 0 0.66 0 1 0 C1.42278225 14.13971753 1.54684022 30.38637535 -8.6875 41.3125 C-13.67852151 45.92103201 -19.30179032 49.56682451 -26 51 C-25.34 51.66 -24.68 52.32 -24 53 C-27.00068447 52.88505443 -30.00012109 52.75832795 -33 52.625 C-34.25876953 52.57859375 -34.25876953 52.57859375 -35.54296875 52.53125 C-47.97184006 51.95316296 -58.37632347 48.3107662 -67 39 C-69.99352178 35.56625443 -72.22272726 32.20933016 -74 28 C-73.67 27.34 -73.34 26.68 -73 26 C-72.55011719 26.71285156 -72.10023438 27.42570312 -71.63671875 28.16015625 C-65.29602426 37.60131057 -57.68171886 43.74998029 -46.51953125 46.5625 C-36.4582968 48.30956707 -26.61003881 46.70512955 -17.64453125 41.6796875 C-10.4729594 36.60271401 -4.10395527 30.08784662 -2.49755859 21.22924805 C-2.38234863 20.24996338 -2.26713867 19.27067871 -2.1484375 18.26171875 C-1.95507812 16.66166992 -1.95507812 16.66166992 -1.7578125 15.02929688 C-1.56832031 13.37510742 -1.56832031 13.37510742 -1.375 11.6875 C-1.2409375 10.56537109 -1.106875 9.44324219 -0.96875 8.28710938 C-0.63969583 5.52540472 -0.31700007 2.76310984 0 0 Z " fill="#499CB7" transform="translate(407,213)"/>
<path d="M0 0 C2.625 0.375 2.625 0.375 5 1 C4.37087356 6.96986281 3.24216578 12.62701903 1.75 18.4375 C1.53110107 19.29915771 1.31220215 20.16081543 1.08666992 21.04858398 C-0.42012195 26.91071932 -2.00679796 32.74785398 -3.6875 38.5625 C-3.88956055 39.27011475 -4.09162109 39.97772949 -4.29980469 40.70678711 C-5.23606101 43.87268878 -6.15154492 46.22731738 -8 49 C-11.875 48.125 -11.875 48.125 -13 47 C-12.50186344 39.82855122 -10.54217726 33.0917148 -8.625 26.1875 C-8.32078125 25.07568359 -8.0165625 23.96386719 -7.703125 22.81835938 C-7.09945984 20.61394965 -6.49178825 18.41063269 -5.87988281 16.20849609 C-5.29488365 14.07529437 -4.72639985 11.93749242 -4.17480469 9.79541016 C-3.79050293 8.31306885 -3.79050293 8.31306885 -3.3984375 6.80078125 C-3.17591309 5.92204346 -2.95338867 5.04330566 -2.72412109 4.13793945 C-2 2 -2 2 0 0 Z " fill="#CEC3F1" transform="translate(373,199)"/>
<path d="M0 0 C3.871824 0.51993065 5.00135202 2.30088847 7.484375 5.2421875 C8.26296875 6.14710938 9.0415625 7.05203125 9.84375 7.984375 C12.71565418 11.60392365 13.359375 14.21032755 13.359375 18.77734375 C12.07340721 24.10607279 7.58626227 27.68912185 3.734375 31.3671875 C3.074375 32.0271875 2.414375 32.6871875 1.734375 33.3671875 C-0.390625 32.9921875 -0.390625 32.9921875 -2.265625 32.3671875 C-3.046875 30.67578125 -3.046875 30.67578125 -3.265625 28.3671875 C-1.10043057 25.6385101 1.33477344 23.33185951 3.828125 20.90234375 C5.99456697 18.54979974 5.99456697 18.54979974 5.734375 15.76953125 C4.60598413 13.0587485 3.43919526 11.782851 1.234375 9.8671875 C-1.14380309 7.63520888 -2.17507747 6.62751164 -3.265625 3.4921875 C-3.265625 0.5105827 -2.92354894 0.47381655 0 0 Z " fill="#CEC3F1" transform="translate(384.265625,206.6328125)"/>
<path d="M0 0 C1.2065625 0.0309375 1.2065625 0.0309375 2.4375 0.0625 C3.1796875 2.3125 3.1796875 2.3125 3.4375 5.0625 C1.8203125 7.125 1.8203125 7.125 -0.4375 9.0625 C-2.84712994 11.14468894 -4.34657679 12.55678511 -5.6015625 15.49609375 C-5.54375752 19.29388093 -3.72929335 20.52648298 -1.0625 23.125 C1.53125 25.66015625 1.53125 25.66015625 3.4375 28.0625 C3.21875 30.37109375 3.21875 30.37109375 2.4375 32.0625 C0.69140625 32.7890625 0.69140625 32.7890625 -1.5625 33.0625 C-7.30196922 28.89835535 -11.87404996 23.39000854 -13.3125 16.4375 C-13.16796499 10.62274542 -6.08514597 0.14841819 0 0 Z " fill="#CDC2F1" transform="translate(353.5625,206.9375)"/>
<path d="M0 0 C12.04773677 -0.57531327 12.04773677 -0.57531327 16.7109375 3.1875 C22 9.75586643 22 9.75586643 22 14 C21.01 14.66 20.02 15.32 19 16 C13.14775274 14.60996537 7.80350138 11.5454415 3 8 C2.21625 7.4225 1.4325 6.845 0.625 6.25 C0.08875 5.8375 -0.4475 5.425 -1 5 C-0.67 3.35 -0.34 1.7 0 0 Z " fill="#F0E3FD" transform="translate(120,247)"/>
<path d="M0 0 C-0.50678377 4.0542702 -2.36828809 5.52556096 -5.5 8 C-10.0601898 11.52199097 -14.60254277 14.01832488 -20 16 C-20.99 14.68 -21.98 13.36 -23 12 C-21.67015594 10.16957972 -20.3099864 8.36116748 -18.9375 6.5625 C-18.18339844 5.55316406 -17.42929688 4.54382813 -16.65234375 3.50390625 C-11.95016936 -0.93511257 -6.1700567 -0.12591952 0 0 Z " fill="#F0E3FD" transform="translate(178,247)"/>
<path d="M0 0 C0.66 0 1.32 0 2 0 C4.50592369 3.75888553 4.46451974 7.64783631 4 12 C3.14916823 15.09844002 1.96364747 17.99234678 0.6875 20.9375 C0.37876953 21.70384766 0.07003906 22.47019531 -0.24804688 23.25976562 C-1.07093708 25.21564571 -2.026948 27.11432108 -3 29 C-3.99 29.33 -4.98 29.66 -6 30 C-5.38627074 23.12199963 -4.10103248 16.6335677 -2.4375 9.9375 C-2.20353516 8.97650391 -1.96957031 8.01550781 -1.72851562 7.02539062 C-1.15732057 4.68232518 -0.58107577 2.34063082 0 0 Z " fill="#169A9E" transform="translate(29,194)"/>
<path d="M0 0 C0.66 0.33 1.32 0.66 2 1 C1.34 1.66 0.68 2.32 0 3 C0.80824219 3.45890625 1.61648437 3.9178125 2.44921875 4.390625 C3.51785156 5.00421875 4.58648437 5.6178125 5.6875 6.25 C6.74324219 6.85328125 7.79898438 7.4565625 8.88671875 8.078125 C16.61664034 12.84992101 16.61664034 12.84992101 18 17 C13.45705495 17.3019268 9.40802027 17.20308383 5 16 C1.3086515 12.76126916 -1.36763233 9.12880408 -4 5 C-2.68 3.35 -1.36 1.7 0 0 Z " fill="#EEE3FC" transform="translate(159,182)"/>
<path d="M0 0 C0.66 0 1.32 0 2 0 C2.47402732 7.26841884 0.74588416 13.33187785 -1.375 20.25 C-1.69210937 21.32507813 -2.00921875 22.40015625 -2.3359375 23.5078125 C-4.90298605 32.08603308 -4.90298605 32.08603308 -7 36 C-7.66 36 -8.32 36 -9 36 C-8.29829083 28.90494058 -6.73618407 22.11101326 -5.0625 15.1875 C-4.79759766 14.05634766 -4.53269531 12.92519531 -4.25976562 11.75976562 C-4.00001953 10.67759766 -3.74027344 9.59542969 -3.47265625 8.48046875 C-3.12086304 7.00936646 -3.12086304 7.00936646 -2.76196289 5.50854492 C-2 3 -2 3 0 0 Z " fill="#D8ABFA" transform="translate(374,205)"/>
<path d="M0 0 C0.99 0.33 1.98 0.66 3 1 C2.3503125 1.99580078 2.3503125 1.99580078 1.6875 3.01171875 C1.130625 3.89472656 0.57375 4.77773437 0 5.6875 C-0.556875 6.55761719 -1.11375 7.42773438 -1.6875 8.32421875 C-3.11633818 11.23717754 -3.58670617 12.81045191 -3 16 C-1.34381229 17.61155786 -1.34381229 17.61155786 0.875 18.6875 C3.30998255 20.02717678 5.01870243 21.01870243 7 23 C7 23.99 7 24.98 7 26 C1.41130582 25.1175746 -2.28524846 21.00450215 -6 17 C-7.4375 14.125 -7.4375 14.125 -7 11 C-5.10650136 7.18387197 -3.0401236 3.0401236 0 0 Z " fill="#DAA8FB" transform="translate(349,211)"/>
<path d="M0 0 C0.33 0 0.66 0 1 0 C1.02917228 3.22914752 1.04685663 6.45826083 1.0625 9.6875 C1.07087891 10.59951172 1.07925781 11.51152344 1.08789062 12.45117188 C1.09111328 13.33740234 1.09433594 14.22363281 1.09765625 15.13671875 C1.10289307 15.94842529 1.10812988 16.76013184 1.11352539 17.59643555 C0.9929791 20.14864673 0.559949 22.51026137 0 25 C-2.72449366 20.91325951 -5.04673585 17.14984898 -4.9375 12.125 C-3.6699262 7.89975401 -1.89940124 3.97549097 0 0 Z " fill="#EDE2FC" transform="translate(184,210)"/>
<path d="M0 0 C1.98 0.99 1.98 0.99 4 2 C4 2.66 4 3.32 4 4 C4.598125 4.0825 5.19625 4.165 5.8125 4.25 C8.83344673 5.28575316 9.56379299 6.12758598 11 9 C11.79738846 13.08168155 11.89401878 16.5017667 9.72265625 20.140625 C8.23254157 21.93313459 6.81549354 23.5372578 5 25 C4.34 25 3.68 25 3 25 C4.8317757 20.28971963 4.8317757 20.28971963 6.125 18.0625 C7.429768 14.98697542 7.57722579 13.33508235 7 10 C5.31306864 7.74514911 3.49839293 5.74835466 1.53125 3.734375 C0 2 0 2 0 0 Z " fill="#D3B7F6" transform="translate(386,210)"/>
<path d="M0 0 C0.66 0 1.32 0 2 0 C2.65720455 8.05075569 0.22928846 15.35672529 -2 23 C-2.33 23 -2.66 23 -3 23 C-2.98259766 22.07767578 -2.98259766 22.07767578 -2.96484375 21.13671875 C-2.95582031 20.32847656 -2.94679688 19.52023438 -2.9375 18.6875 C-2.92589844 17.88699219 -2.91429687 17.08648437 -2.90234375 16.26171875 C-2.90342145 13.83138666 -2.90342145 13.83138666 -4 11 C-3.4765625 8.5546875 -3.4765625 8.5546875 -2.625 5.875 C-2.34914063 4.98554688 -2.07328125 4.09609375 -1.7890625 3.1796875 C-1 1 -1 1 0 0 Z " fill="#C9B4F1" transform="translate(374,205)"/>
<path d="M0 0 C0.66 0.33 1.32 0.66 2 1 C1.65203843 10.11659309 1.65203843 10.11659309 -0.9375 13.625 C-3 15 -3 15 -5 15 C-4.07361787 12.61787452 -3.16764006 10.30569658 -1.9375 8.0625 C-0.73861104 5.42494429 -0.38972169 2.85795906 0 0 Z " fill="#D7AAFA" transform="translate(394,220)"/>
<path d="M0 0 C0.66 0 1.32 0 2 0 C2.19622241 4.21878192 1.80230168 7.17010894 0 11 C-0.99 10.67 -1.98 10.34 -3 10 C-2.69201674 8.51988629 -2.378482 7.04092675 -2.0625 5.5625 C-1.88847656 4.73878906 -1.71445312 3.91507813 -1.53515625 3.06640625 C-1 1 -1 1 0 0 Z " fill="#D8ADFA" transform="translate(374,205)"/>
<path d="M0 0 C1.98 0 3.96 0 6 0 C5.34 1.32 4.68 2.64 4 4 C2.68 3.34 1.36 2.68 0 2 C0 1.34 0 0.68 0 0 Z " fill="#D2D6F0" transform="translate(146,249)"/>
</svg>
